<svg width="150" height="150" viewBox="0 0 150 150" fill="none" xmlns="http://www.w3.org/2000/svg">
<rect width="150" height="150" rx="35" fill="url(#paint0_linear_3161_45)"/>
<rect x="5" y="5" width="140" height="140" rx="32" fill="#383234"/>
<path d="M60.5 84.2853L53.5949 99.2231L49.9992 107H45.9497L27 74L33.5 81L46.5 94L58.5 74.5C58.963 75.7211 59.8592 82.5265 60.5 84.2853Z" fill="white"/>
<path d="M122.859 65.7825C120.433 66.005 115.987 60.0488 114.57 58.4647C110.818 54.2719 106.779 50.999 103.237 56.7909C102.619 57.8287 102.288 58.9977 101.987 60.1684C100.043 67.8266 99.0327 75.6792 97.6172 83.457C96.3672 90.3016 94.5884 97.5016 89.9921 102.938C87.8063 105.53 84.2961 107.694 81.3873 107.945C71.818 108.818 67.1305 99.2036 64.7943 91.5304C63.6947 87.9304 62.8045 84.2574 62.0815 80.5677C62.0663 80.4648 62.0359 80.3601 62.0207 80.2572C61.6592 78.2862 61.3281 76.3317 61.0409 74.3458C60.845 73.0273 60.6643 71.7089 60.5139 70.3755L66.2251 56.5684C66.4971 59.7831 66.9177 63.2503 66.9633 63.7683C67.0832 65.1316 67.22 66.5231 67.3552 67.9312C68.0629 75.3089 69.1187 82.9821 72.3434 89.6042C73.715 92.4486 76.4431 96.5368 80.1644 96.0337C83.5107 95.5737 85.4093 91.4407 86.4938 88.671C88.9499 82.3893 89.7337 75.4417 90.8029 68.8495C91.9786 61.6794 93.3198 54.702 96.3638 48.035C97.5395 45.4861 99.2878 43.0568 101.849 41.8878C107.229 39.4585 114.207 42.3179 117.536 46.7913C119.585 49.5909 121.349 52.6878 122.509 55.9324C123.131 57.6195 124.849 64.67 122.859 65.7825Z" fill="url(#paint1_linear_3161_45)"/>
<defs>
<linearGradient id="paint0_linear_3161_45" x1="138.5" y1="10" x2="10.5" y2="140" gradientUnits="userSpaceOnUse">
<stop offset="0.0001" stop-color="#64B996"/>
<stop offset="0.135" stop-color="#8FD5A1"/>
<stop offset="1" stop-color="#7298D6"/>
</linearGradient>
<linearGradient id="paint1_linear_3161_45" x1="61.1495" y1="87.8109" x2="120.334" y2="62.0078" gradientUnits="userSpaceOnUse">
<stop offset="0.3169" stop-color="#63B996"/>
<stop offset="0.8279" stop-color="#79BF93"/>
<stop offset="1" stop-color="#8ED4A0"/>
</linearGradient>
</defs>
</svg>
