<svg width="150" height="150" viewBox="0 0 150 150" fill="none" xmlns="http://www.w3.org/2000/svg">
<rect width="150" height="150" rx="35" fill="#383234"/>
<path d="M61.5 85.2853L54.5949 100.223L50.9992 108H46.9497L28 75L35 81.5L47.5 95L59.5 75.5C59.963 76.7211 60.8592 83.5265 61.5 85.2853Z" fill="white"/>
<path d="M123.859 66.7825C121.433 67.005 116.987 61.0488 115.57 59.4647C111.818 55.2719 107.779 51.999 104.237 57.7909C103.619 58.8287 103.288 59.9977 102.987 61.1684C101.043 68.8266 100.033 76.6792 98.6172 84.457C97.3672 91.3016 95.5884 98.5016 90.9921 103.938C88.8063 106.53 85.2961 108.694 82.3873 108.945C72.818 109.818 68.1305 100.204 65.7943 92.5304C64.6947 88.9304 63.8045 85.2574 63.0815 81.5677C63.0663 81.4648 63.0359 81.3601 63.0207 81.2572C62.6592 79.2862 62.3281 77.3317 62.0409 75.3458C61.845 74.0273 61.6643 72.7089 61.5139 71.3755L67.2251 57.5684C67.4971 60.7831 67.9177 64.2503 67.9633 64.7683C68.0832 66.1316 68.22 67.5231 68.3552 68.9312C69.0629 76.3089 70.1187 83.9821 73.3434 90.6042C74.715 93.4486 77.4431 97.5368 81.1644 97.0337C84.5107 96.5737 86.4093 92.4407 87.4938 89.671C89.9499 83.3893 90.7337 76.4417 91.8029 69.8495C92.9786 62.6794 94.3198 55.702 97.3638 49.035C98.5395 46.4861 100.288 44.0568 102.849 42.8878C108.229 40.4585 115.207 43.3179 118.536 47.7913C120.585 50.5909 122.349 53.6878 123.509 56.9324C124.131 58.6195 125.849 65.67 123.859 66.7825Z" fill="url(#paint0_linear_3152_39)"/>
<defs>
<linearGradient id="paint0_linear_3152_39" x1="62.1495" y1="88.8109" x2="121.334" y2="63.0078" gradientUnits="userSpaceOnUse">
<stop offset="0.3169" stop-color="#63B996"/>
<stop offset="0.8279" stop-color="#79BF93"/>
<stop offset="1" stop-color="#8ED4A0"/>
</linearGradient>
</defs>
</svg>
